<?xml version="1.0" encoding="UTF-8"?>
<svg width="183px" height="123px" viewBox="0 0 183 123" version="1.1" xmlns="http://www.w3.org/2000/svg" xmlns:xlink="http://www.w3.org/1999/xlink">
    <defs>
        <radialGradient cx="50%" cy="50%" fx="50%" fy="50%" r="78.2195324%" gradientTransform="translate(0.500000,0.500000),scale(0.595293,1.000000),rotate(90.000000),translate(-0.500000,-0.500000)" id="radialGradient-1">
            <stop stop-color="#F5515F" offset="0%"></stop>
            <stop stop-color="#9F041B" offset="100%"></stop>
        </radialGradient>
        <radialGradient cx="50%" cy="60.3296972%" fx="50%" fy="60.3296972%" r="69.7458515%" gradientTransform="translate(0.500000,0.603297),scale(1.000000,0.948325),rotate(90.000000),translate(-0.500000,-0.603297)" id="radialGradient-2">
            <stop stop-color="#F5515F" offset="0%"></stop>
            <stop stop-color="#9F041B" offset="100%"></stop>
        </radialGradient>
    </defs>
    <g id="Page-1" stroke="none" stroke-width="1" fill="none" fill-rule="evenodd">
        <g id="noun_1106744_cc" transform="translate(7.000000, 12.000000)" stroke="url(#radialGradient-1)" stroke-width="11">
            <g id="Group">
                <g id="Shape">
                    <path d="M169.209855,50.3647321 C169.16429,50.297852 169.117529,50.2296901 169.069599,50.1603055 C167.879415,48.4373405 166.164151,46.2338344 164.11309,43.8288255 C158.944956,37.7688335 152.45924,31.3317862 145.311191,25.4389914 C126.028641,9.54260994 105.200869,0 84.6049273,0 C64.0089851,0 43.1812134,9.54260994 23.8986628,25.4389914 C16.7506139,31.3317862 10.2648994,37.7688335 5.09676415,43.8288255 C3.04570351,46.2338344 1.33043919,48.4373405 0.140255089,50.1603055 C0.0923257776,50.2296901 0.04556449,50.297852 0,50.3647321 C0.04556449,50.4316123 0.0923257776,50.4997742 0.140255089,50.5691588 C1.33043919,52.2921237 3.04570351,54.4956299 5.09676415,56.9006388 C10.2648994,62.9606308 16.7506139,69.3976781 23.8986628,75.2904729 C43.1812134,91.1868543 64.0089851,100.729464 84.6049273,100.729464 C105.200869,100.729464 126.028641,91.1868543 145.311191,75.2904729 C152.45924,69.3976781 158.944956,62.9606308 164.11309,56.9006388 C166.164151,54.4956299 167.879415,52.2921237 169.069599,50.5691588 C169.117529,50.4997742 169.16429,50.4316123 169.209855,50.3647321 Z"></path>
                </g>
            </g>
        </g>
        <path d="M104.22,55.46 C103.486663,51.4999802 102.185009,48.4933436 100.315,46.44 C98.4449907,44.3866564 95.6033524,43.36 91.79,43.36 C89.2966542,43.36 87.2250082,43.7816624 85.575,44.625 C83.9249918,45.4683376 82.605005,46.5133271 81.615,47.76 C80.624995,49.0066729 79.9283353,50.3266597 79.525,51.72 C79.1216647,53.1133403 78.8833337,54.3599945 78.81,55.46 L104.22,55.46 Z M78.81,65.36 C79.0300011,70.4200253 80.3133216,74.0866553 82.66,76.36 C85.0066784,78.6333447 88.379978,79.77 92.78,79.77 C95.9333491,79.77 98.6466553,78.9816746 100.92,77.405 C103.193345,75.8283254 104.586664,74.1600088 105.1,72.4 L118.85,72.4 C116.649989,79.2200341 113.276689,84.096652 108.73,87.03 C104.183311,89.963348 98.6833656,91.43 92.23,91.43 C87.7566443,91.43 83.7233513,90.7150071 80.13,89.285 C76.5366487,87.8549929 73.4933458,85.8200132 71,83.18 C68.5066542,80.5399868 66.5816734,77.386685 65.225,73.72 C63.8683266,70.053315 63.19,66.020022 63.19,61.62 C63.19,57.3666454 63.8866597,53.406685 65.28,49.74 C66.6733403,46.073315 68.6533205,42.9016801 71.22,40.225 C73.7866795,37.54832 76.8483155,35.4400077 80.405,33.9 C83.9616845,32.3599923 87.9033117,31.59 92.23,31.59 C97.0700242,31.59 101.286649,32.5249907 104.88,34.395 C108.473351,36.2650094 111.424988,38.7766509 113.735,41.93 C116.045012,45.0833491 117.713328,48.6766465 118.74,52.71 C119.766672,56.7433535 120.133335,60.959978 119.84,65.36 L78.81,65.36 Z" id="e" fill="url(#radialGradient-2)"></path>
    </g>
</svg>
